PathFileType	4	(X/Y/Z)	Kaydara																																																																																																																									
DataRate	CameraRate	NumFrames	NumMarkers	Units	OrigDataRate	OrigDataStartFrame	OrigNumFrames																																																																																																																					
30	30	4	41	mm	30	131	154																																																																																																																					
Frame#	Time	PAIB_LFHD			PAIB_RFHD			PAIB_LBHD			PAIB_RBHD			PAIB_LFTShould			PAIB_RFTShould			PAIB_LRRShould			PAIB_RRRShould			PAIB_T10			PAIB_STRN			PAIB_TRUN			PAIB_LSHO			PAIB_LUPA			PAIB_LELB			PAIB_LFRM			PAIB_LWRA			PAIB_LWRB			PAIB_LFIN			PAIB_RSHO			PAIB_RUPA			PAIB_RELB			PAIB_RFRM			PAIB_RWRA			PAIB_RWRB			PAIB_RFIN			PAIB_LFWT			PAIB_RFWT			PAIB_LBWT			PAIB_RBWT			PAIB_LTHI			PAIB_LKNE			PAIB_LSHN			PAIB_LANK			PAIB_LHEE			PAIB_LTOE			PAIB_RTHI			PAIB_RKNE			PAIB_RSHN			PAIB_RANK			PAIB_RHEE			PAIB_RTOE		
		X1	Y1	Z1	X2	Y2	Z2	X3	Y3	Z3	X4	Y4	Z4	X5	Y5	Z5	X6	Y6	Z6	X7	Y7	Z7	X8	Y8	Z8	X9	Y9	Z9	X10	Y10	Z10	X11	Y11	Z11	X12	Y12	Z12	X13	Y13	Z13	X14	Y14	Z14	X15	Y15	Z15	X16	Y16	Z16	X17	Y17	Z17	X18	Y18	Z18	X19	Y19	Z19	X20	Y20	Z20	X21	Y21	Z21	X22	Y22	Z22	X23	Y23	Z23	X24	Y24	Z24	X25	Y25	Z25	X26	Y26	Z26	X27	Y27	Z27	X28	Y28	Z28	X29	Y29	Z29	X30	Y30	Z30	X31	Y31	Z31	X32	Y32	Z32	X33	Y33	Z33	X34	Y34	Z34	X35	Y35	Z35	X36	Y36	Z36	X37	Y37	Z37	X38	Y38	Z38	X39	Y39	Z39	X40	Y40	Z40	X41	Y41	Z41
																																																																																																																												
116	4.323	294.1584	1643.62564	1051.71379	110.00543	1641.08353	1043.48244	308.0323	1604.58847	929.08623	104.80448	1614.49371	930.85251	274.38316	1370.52414	1051.20026	152.42746	1369.2868	1061.17386	270.76366	1434.69452	907.12753	117.70205	1437.51144	927.08359	181.23125	1278.85323	832.98248	223.68832	1304.17511	1091.5873	222.84323	1202.3243	1112.02652	396.72035	1379.31976	960.38261	445.15137	1152.47017	924.0966	453.27702	1075.32509	871.40427	482.0277	958.52264	893.32443	442.5655	829.60175	972.38022	470.09773	824.5285	896.2458	491.06998	777.93152	949.21608	22.39709	1374.7612	1018.4758	-53.10869	1204.35585	999.94362	-83.11264	1089.99573	1008.00842	-91.58166	965.62187	1078.91525	-17.11221	898.02994	1197.47314	-88.05096	868.16025	1162.12112	-75.18119	859.14871	1234.25522	310.41822	932.14752	1073.2061	77.13758	909.2411	1071.78909	254.24994	959.50905	851.68434	108.50998	956.23665	854.79645	307.31298	675.95459	932.91481	318.87308	485.2541	1125.47325	280.86464	284.87055	1157.12395	278.53914	90.70619	1089.85909	222.54686	81.47245	1039.36623	257.34011	45.89936	1260.52795	62.60888	656.73172	870.60249	40.1787	422.71683	932.23961	101.5854	283.70523	814.58076	74.20172	220.53888	604.50184	133.15987	268.50239	582.1983	127.09279	58.06564	661.87782
117	4.357	296.54135	1650.38513	1097.36717	112.37087	1647.83401	1088.19511	310.84276	1612.61765	974.47174	107.95025	1622.34787	975.23933	274.78394	1377.32681	1097.52747	152.46887	1375.89264	1104.06021	275.61201	1441.64078	953.27347	121.89121	1443.85437	969.34746	188.91781	1285.25299	877.84447	222.75602	1310.7756	1136.46812	221.17256	1208.91449	1156.67	399.76624	1385.90958	1010.24803	450.61405	1158.6937	979.29398	461.08814	1080.21469	929.29573	488.87089	963.99506	955.29427	446.88053	838.23746	1037.51381	476.18919	829.95026	962.7037	496.38069	786.04996	1017.8006	22.85157	1379.99496	1056.85005	-51.08479	1209.19693	1032.83478	-79.10841	1093.7175	1038.96645	-89.33758	966.13388	1101.70433	-16.40744	889.60754	1215.14183	-87.92883	863.40561	1178.14346	-73.78015	847.66266	1249.21509	312.74548	938.21121	1117.3571	79.18615	916.97342	1114.54033	256.98027	968.25294	895.33829	111.6375	958.02032	895.85945	308.39405	685.85938	962.73628	321.40125	479.14856	1143.4182	283.06591	282.52644	1166.22353	278.43552	91.7065	1090.7235	222.55423	83.63323	1039.79782	256.33291	45.16786	1260.93369	70.98749	653.07205	936.28494	36.87799	431.23924	1023.41187	103.59347	295.89888	902.59491	82.20687	245.9927	685.48996	145.39729	289.7097	669.505	107.65822	83.79283	744.18854
118	4.39	297.72165	1657.55142	1142.39174	113.60846	1654.2514	1132.15286	312.8241	1620.43594	1019.31694	109.92054	1629.43726	1018.99399	274.04697	1384.73831	1142.26852	151.64851	1383.14575	1145.44571	279.28341	1449.02649	998.05168	125.39739	1450.63263	1010.33707	195.44767	1292.733	919.40636	220.8844	1318.38928	1180.14404	219.03683	1216.37863	1199.98413	401.59203	1393.81668	1058.85033	454.63238	1166.55502	1035.96542	468.52619	1087.00607	987.51259	495.35313	971.74843	1019.41681	450.38597	849.86618	1105.62782	482.59926	838.03246	1032.5425	501.04362	797.47505	1090.83046	22.80935	1386.73706	1094.25613	-48.72818	1215.38284	1064.21181	-75.73165	1099.49387	1066.02524	-88.06939	968.76152	1120.54298	-16.68466	882.96631	1228.33046	-89.04975	861.07567	1190.11513	-73.62611	838.61145	1259.58008	316.45416	944.5224	1159.25644	82.52789	928.57246	1158.07632	259.08604	976.33438	938.26462	114.51867	966.45584	939.28482	307.757	695.35011	990.95108	318.92826	468.76308	1150.64896	286.43795	281.05185	1171.70059	278.11375	92.43536	1091.29105	221.95734	85.49457	1040.60745	255.8534	44.52613	1261.4608	71.404	656.64871	1003.76564	36.89175	445.26661	1114.18846	104.99834	305.87643	999.01466	93.21539	255.60474	785.05203	155.81731	287.07657	767.25189	98.5878	91.27743	858.12607
119	4.423	298.102	1662.58102	1186.26427	114.07928	1659.39728	1175.63118	313.9513	1626.48956	1063.51608	110.92434	1635.35583	1062.24907	273.00161	1391.80725	1186.24878	150.93345	1389.25278	1186.53374	282.41533	1455.33173	1042.22549	128.58846	1455.87921	1050.91209	201.78638	1298.05099	962.21138	219.7728	1324.86649	1222.79213	218.24461	1222.85027	1242.6046	402.86362	1401.46866	1107.17499	459.38625	1174.85214	1090.14885	475.69187	1094.24347	1044.64203	501.34312	980.24017	1083.94882	453.50784	863.62541	1175.85487	488.04836	847.49359	1104.74213	504.80541	810.9494	1166.27968	22.4033	1392.8009	1130.97672	-46.94669	1221.42273	1093.64845	-71.86208	1104.71054	1090.61256	-86.20234	971.25786	1136.49147	-17.84201	877.14043	1239.43329	-89.80344	859.12933	1198.76938	-75.55823	831.27769	1266.71989	321.8988	948.59962	1200.86388	87.49039	939.21112	1201.62849	259.74957	982.87399	981.15112	116.02546	973.76381	983.49297	306.1968	703.33267	1019.92905	323.39783	469.71851	1163.41614	286.336	279.22649	1176.3102	276.91149	92.58125	1092.01164	221.21702	86.66783	1041.40999	255.68541	43.84651	1262.286	65.96362	663.36182	1065.97801	36.53811	462.80708	1197.04262	104.31566	309.87595	1098.78471	96.35334	233.05714	889.6431	162.03863	263.28947	870.5101	98.67088	87.02315	989.22646
